<svg width="608" height="608" viewBox="0 0 608 608" fill="none" xmlns="http://www.w3.org/2000/svg">
<path d="M314.145 94L175.238 225.574L247.033 306.241L273.565 273.348L314.145 94Z" fill="#BFC2C7"/>
<path d="M433.542 202.862L314.145 94L273.565 273.348L433.542 202.862Z" fill="#5A5E61"/>
<path d="M471 350.882L433.542 202.862L273.565 273.348L247.033 306.241L271.224 401.789L471 350.882Z" fill="#1F2024"/>
<path d="M318.385 512.126C384.917 460.108 432.974 422.534 471 350.882L271.224 401.789L317.266 513L318.385 512.126Z" fill="#030303"/>
<path d="M229.084 461.31L317.266 513L271.224 401.789L229.084 461.31Z" fill="#0B0C0E"/>
<path d="M137 380.643L229.084 461.31L271.224 401.789L247.033 306.241C206.854 338.742 182.941 355.239 137 380.643Z" fill="#1B1F22"/>
<path d="M175.238 225.574L137 380.643C182.941 355.239 206.854 338.742 247.033 306.241L175.238 225.574Z" fill="#666666"/>
</svg>
